Coordinates
version=1
nRows=24
nColumns=24
inDegrees=yes

Units are S.I. units (second, meters, Newtons, ...)
Angles are in degrees.

endheader
time	pelvis_tilt	pelvis_list	pelvis_rotation	pelvis_tx	pelvis_ty	pelvis_tz	hip_flexion_r	hip_adduction_r	hip_rotation_r	knee_angle_r	ankle_angle_r	subtalar_angle_r	mtp_angle_r	hip_flexion_l	hip_adduction_l	hip_rotation_l	knee_angle_l	ankle_angle_l	subtalar_angle_l	mtp_angle_l	lumbar_extension	lumbar_bending	lumbar_rotation
      4.04000000	      7.67773587	     -0.93555423	     -4.54440119	     -0.55462442	      0.72231027	     -0.05525099	    -24.27806558	      3.06670165	     11.44572970	     -8.05159425	     26.02816597	     -9.53636350	      0.00000000	      9.80439088	      0.25388750	    -11.79634825	      6.81205626	     -2.02405481	    -18.71191325	      0.00000000	    -25.33609762	     -4.05707645	      4.56772100
      4.05000000	      7.71517632	     -0.35398309	     -4.66196833	     -0.54160078	      0.72130784	     -0.05655066	    -24.87147404	      2.24294792	     11.21595296	     -8.99151357	     25.70508739	     -9.15078704	      0.00000000	      9.65551998	      0.88988623	     -9.68514404	      5.97961770	     -4.09810763	    -21.53859447	      0.00000000	    -25.18401694	     -4.71666141	      4.37652276
      4.06000000	      7.69718446	      0.40851220	     -4.65918117	     -0.52862517	      0.72070526	     -0.05808283	    -25.16446934	      1.32332457	     10.70968218	    -10.32740906	     25.23274295	     -8.76000852	      0.00000000	      9.77818716	      1.71433493	     -7.37820655	      4.48724621	     -6.45877864	    -24.81495099	      0.00000000	    -25.00608015	     -5.51226594	      4.03201254
      4.07000000	      7.86993662	      1.38685400	     -4.56143242	     -0.51570052	      0.72080556	     -0.05982658	    -25.43604765	      0.24152197	      9.96969014	    -12.03801388	     24.48165575	     -8.35374681	      0.00000000	      9.94895450	      2.83549877	     -5.57273213	      2.37042699	     -8.36282552	    -27.47399550	      0.00000000	    -25.10264903	     -6.50496389	      3.45248557
      4.08000000	      8.06212643	      2.47488025	     -4.36188546	     -0.50286409	      0.72145107	     -0.06172009	    -25.53011446	     -0.84259937	      9.38867329	    -14.09553408	     23.11164233	     -8.52299677	      0.00000000	     10.48577429	      4.11841831	     -5.04352506	     -0.52103950	     -8.66848168	    -28.03702959	      0.00000000	    -25.27744904	     -7.56301901	      2.69553323
      4.09000000	      8.21671376	      3.47508970	     -4.03316849	     -0.49013000	      0.72237806	     -0.06384480	    -25.17647439	     -1.78579634	      8.30333832	    -16.84802585	     21.71648782	     -7.99814605	      0.00000000	     11.10244611	      5.33955498	     -4.38690658	     -3.60485562	     -8.77181656	    -28.94013321	      0.00000000	    -25.46590501	     -8.43123155	      1.82013550
      4.10000000	      8.40572036	      4.35184120	     -3.64376049	     -0.47748416	      0.72364410	     -0.06603954	    -24.60134918	     -2.56196736	      7.32713992	    -20.00036936	     19.73183311	     -7.74049223	      0.00000000	     11.76140141	      6.41968699	     -4.53454045	     -6.89269764	     -7.63541851	    -28.39591557	      0.00000000	    -25.72746248	     -9.11504511	      0.94701667
      4.11000000	      8.55687055	      5.02601383	     -3.24958683	     -0.46492591	      0.72504626	     -0.06822220	    -23.70825706	     -3.08703054	      6.70369903	    -23.54359901	     17.11388939	     -7.89600003	      0.00000000	     12.33177963	      7.24964011	     -5.05118589	    -10.01592653	     -5.53523860	    -27.01937502	      0.00000000	    -25.95050773	     -9.54560015	      0.06102333
      4.12000000	      8.61830564	      5.44994466	     -2.91216329	     -0.45253592	      0.72646519	     -0.07041161	    -22.34959456	     -3.40098656	      6.18913626	    -27.53018809	     13.95091627	     -8.02965138	      0.00000000	     12.62563798	      7.83845512	     -5.26960900	    -12.52236395	     -3.59500550	    -26.10401963	      0.00000000	    -26.06046095	     -9.67904078	     -0.67066840
      4.13000000	      8.56653561	      5.73385029	     -2.70042655	     -0.44033496	      0.72781853	     -0.07258261	    -20.51107186	     -3.66007627	      5.81231034	    -31.87047089	     10.44930997	     -8.01375292	      0.00000000	     12.59209690	      8.34376708	     -5.10935732	    -14.22362627	     -2.09092267	    -26.05248855	      0.00000000	    -26.01425520	     -9.65853566	     -1.33537057
      4.14000000	      8.54957120	      5.94402888	     -2.61147929	     -0.42839692	      0.72924868	     -0.07463574	    -18.45015133	     -3.90731540	      5.60049231	    -36.33287218	      6.56910313	     -8.28126255	      0.00000000	     12.21511088	      8.75623191	     -5.25040803	    -15.34094291	     -0.28553678	    -25.38303714	      0.00000000	    -26.01510646	     -9.58253795	     -1.95027049
      4.15000000	      8.39917949	      6.13824948	     -2.67791458	     -0.41679291	      0.73049700	     -0.07660355	    -15.93580789	     -4.26976946	      5.39894738	    -40.94001842	      2.90902980	     -8.37429989	      0.00000000	     11.66091104	      9.19276756	     -5.18749841	    -15.82534678	      0.90746117	    -25.45177018	      0.00000000	    -25.86831703	     -9.51936933	     -2.41382929
      4.16000000	      8.22079807	      6.27592075	     -2.81688905	     -0.40547770	      0.73174800	     -0.07841609	    -13.28316339	     -4.56534553	      5.41384302	    -45.35051386	     -0.56663655	     -8.86685976	      0.00000000	     10.90809949	      9.55908414	     -5.23692853	    -15.85690133	      2.14889223	    -25.26409416	      0.00000000	    -25.71285994	     -9.41571229	     -2.93413456
      4.17000000	      7.99383740	      6.41091961	     -2.99492513	     -0.39450621	      0.73292480	     -0.08010136	    -10.46853140	     -4.88344270	      5.43516259	    -49.54358248	     -3.33151650	     -9.54160997	      0.00000000	     10.10690937	      9.91241725	     -5.32830807	    -15.65259794	      3.08910737	    -25.21181003	      0.00000000	    -25.55485344	     -9.33033030	     -3.45565461
      4.18000000	      7.73225641	      6.49182158	     -3.13910795	     -0.38378973	      0.73412466	     -0.08167425	     -7.62564483	     -5.09645517	      5.49215631	    -53.33420551	     -5.30109304	    -10.61606176	      0.00000000	      9.25291491	     10.19845192	     -5.42210906	    -15.25995820	      3.96798425	    -25.06969644	      0.00000000	    -25.39809542	     -9.18369457	     -4.05502912
      4.19000000	      7.47656105	      6.44786234	     -3.21827335	     -0.37335441	      0.73540119	     -0.08311046	     -4.84747847	     -5.08199973	      5.59025302	    -56.65529444	     -6.39828104	    -12.15593633	      0.00000000	      8.42091822	     10.32392146	     -5.54052259	    -14.91933971	      5.07208902	    -24.50136350	      0.00000000	    -25.31838204	     -8.90742188	     -4.63495814
      4.20000000	      7.19562670	      6.36570982	     -3.21491421	     -0.36312880	      0.73672194	     -0.08449287	     -2.09170360	     -5.00317406	      5.56784139	    -59.51348380	     -6.58726263	    -13.75015471	      0.00000000	      7.60606977	     10.40307448	     -5.56689044	    -14.54288694	      5.83461245	    -24.12630370	      0.00000000	    -25.26685896	     -8.58519037	     -5.29342324
      4.21000000	      6.94243135	      6.15031619	     -3.10587935	     -0.35304093	      0.73816710	     -0.08584741	      0.51769300	     -4.73890525	      5.43687548	    -61.81366191	     -6.15570562	    -15.55008304	      0.00000000	      6.77378557	     10.32415244	     -5.57881629	    -14.20154083	      6.70969680	    -23.56962277	      0.00000000	    -25.29171479	     -8.09831698	     -5.97356508
      4.22000000	      6.75255879	      5.81392813	     -2.94940491	     -0.34306886	      0.73973818	     -0.08712406	      2.95058234	     -4.29757264	      5.26897810	    -63.57220743	     -5.27570617	    -17.31404677	      0.00000000	      5.90124162	     10.09477311	     -5.63622579	    -13.91828819	      7.81622447	    -22.69731619	      0.00000000	    -25.42589149	     -7.49262376	     -6.63390005
      4.23000000	      6.57292972	      5.38513775	     -2.68921873	     -0.33312730	      0.74135464	     -0.08847304	      5.25130937	     -3.78686812	      4.91366090	    -64.79064548	     -4.03866862	    -18.82977874	      0.00000000	      4.96441481	      9.78760410	     -5.46330965	    -13.54812075	      8.65444700	    -22.06662111	      0.00000000	    -25.58306250	     -6.75850862	     -7.30120481
      4.24000000	      6.47185670	      4.86438232	     -2.36937255	     -0.32318099	      0.74305420	     -0.08987840	      7.32999959	     -3.21525829	      4.42723393	    -65.46646806	     -2.65728765	    -20.01303901	      0.00000000	      3.86556322	      9.41542260	     -4.99317192	    -13.04419480	      9.27568116	    -21.80559993	      0.00000000	    -25.83587228	     -5.91763064	     -7.92445300
      4.25000000	      6.34995165	      4.25896693	     -2.04246173	     -0.31321897	      0.74465758	     -0.09126077	      9.30976053	     -2.56297949	      3.90154493	    -65.65380691	     -1.32394418	    -21.00533263	      0.00000000	      2.79258102	      8.93875942	     -4.54361812	    -12.53730052	      9.89156588	    -21.55959883	      0.00000000	    -26.04469187	     -4.99176293	     -8.43335641
      4.26000000	      6.22864076	      3.59801998	     -1.69750533	     -0.30324118	      0.74615575	     -0.09264745	     11.15192027	     -1.87875619	      3.31898188	    -65.36785165	     -0.06520546	    -21.71532055	      0.00000000	      1.71592756	      8.39457824	     -4.08932652	    -12.00900765	     10.49934630	    -21.31295894	      0.00000000	    -26.24350621	     -4.01517121	     -8.88356077
      4.27000000	      6.10889881	      2.93247358	     -1.34896704	     -0.29322685	      0.74749444	     -0.09400521	     12.85418559	     -1.23292659	      2.67914600	    -64.64064042	      1.13908716	    -22.18712520	      0.00000000	      0.63440936	      7.83483271	     -3.62554183	    -11.45735392	     11.08009270	    -21.11345486	      0.00000000	    -26.42147258	     -3.05569193	     -9.23835636
